<svg xmlns="http://www.w3.org/2000/svg" xml:space="preserve" width="800" height="800" viewBox="0 0 72 72"><path d="M18.321 69.07c-2.874 0-5.775-.845-8.31-2.604l-.534-.371c-6.614-4.593-8.259-13.712-3.666-20.326l13.931-18.588c2.183-3.146 5.522-5.292 9.361-5.984a14.5 14.5 0 0 1 10.921 2.377l.534.37a14.65 14.65 0 0 1 5.675 7.85 2 2 0 1 1-3.836 1.134 10.5 10.5 0 0 0-4.119-5.698l-.534-.37a10.53 10.53 0 0 0-7.931-1.727 10.54 10.54 0 0 0-6.828 4.388L9.055 48.108c-3.293 4.744-2.099 11.365 2.704 14.701l.534.371c4.801 3.334 11.423 2.142 14.759-2.66l4.256-6.126a2.004 2.004 0 0 1 2.784-.501 2 2 0 0 1 .501 2.784l-4.256 6.125c-2.833 4.08-7.389 6.268-12.016 6.268"/><path d="M40.297 51.043c-2.877 0-5.784-.844-8.323-2.606l-.538-.375a14.64 14.64 0 0 1-5.669-7.845 2 2 0 1 1 3.836-1.134 10.5 10.5 0 0 0 4.117 5.696l.538.375c4.799 3.332 11.421 2.138 14.757-2.664l13.93-18.59c3.294-4.744 2.1-11.365-2.703-14.701l-.53-.365a10.54 10.54 0 0 0-7.936-1.731 10.54 10.54 0 0 0-6.828 4.388l-4.255 6.125a1.999 1.999 0 1 1-3.285-2.281l4.255-6.125a14.5 14.5 0 0 1 9.404-6.043 14.51 14.51 0 0 1 10.922 2.379l.529.365c6.62 4.598 8.264 13.717 3.67 20.33l-13.93 18.59c-2.805 4.037-7.344 6.212-11.961 6.212"/><path d="M52.76 33.106a.998.998 0 0 1-.799-1.599l.548-.73a1 1 0 0 1 1.599 1.199l-.548.73a1 1 0 0 1-.8.4M55.047 30.056a.998.998 0 0 1-.799-1.599l4.426-5.904a7.03 7.03 0 0 0 1.134-5.28 7.05 7.05 0 0 0-2.938-4.572l-.343-.237a1.001 1.001 0 0 1 1.139-1.645l.344.238c1.997 1.387 3.334 3.468 3.766 5.86s-.094 4.81-1.48 6.806l-4.447 5.934a1 1 0 0 1-.802.399"/></svg>