<svg xmlns="http://www.w3.org/2000/svg" width="28" height="28" fill="none"><path fill="#fff" d="M24.323 10.165a4.588 4.588 0 1 0-6.488-6.488L16.8 4.712l.044.13a10.2 10.2 0 0 0 2.441 3.873 10.2 10.2 0 0 0 4.003 2.485z" opacity=".5"/><path fill="#fff" d="m16.845 4.667-.045.045.044.13a10.2 10.2 0 0 0 2.442 3.873 10.2 10.2 0 0 0 4.001 2.485L13.3 21.187c-.673.673-1.01 1.01-1.381 1.3a7.6 7.6 0 0 1-1.413.873c-.425.203-.877.353-1.78.654l-4.764 1.588a1.237 1.237 0 0 1-1.565-1.565l1.588-4.764c.3-.903.451-1.355.654-1.78.239-.501.532-.975.873-1.413.29-.37.627-.708 1.3-1.38z"/></svg>