<svg xmlns="http://www.w3.org/2000/svg" xml:space="preserve" width="256" height="256"><g style="stroke:none;stroke-width:0;stroke-dasharray:none;stroke-linecap:butt;stroke-linejoin:miter;stroke-miterlimit:10;fill:none;fill-rule:nonzero;opacity:1"><path d="M44.913 26.682H15.231C6.951 26.682.229 23.071.02 14.841c-.004.131-.02.258-.02.39v31.303c8.265 10.233 20.908 16.784 35.087 16.784h.682c8.28 0 12.002 3.611 12.211 11.841.003-.131.02-.258.02-.39C48 83.181 44.181 90 35.769 90h39C83.181 90 90 83.181 90 74.769c0-32.037-20.186-48.087-45.087-48.087" style="stroke:none;stroke-width:1;stroke-dasharray:none;stroke-linecap:butt;stroke-linejoin:miter;stroke-miterlimit:10;fill:#1d90cb;fill-rule:nonzero;opacity:1" transform="translate(1.407 1.407)scale(2.81)"/><path d="M90 74.769c0-24.901-20.186-45.087-45.087-45.087H15.231C6.951 29.682.229 23.071.02 14.841c-.004.131-.02.258-.02.39C0 6.819 6.819 0 15.231 0h59.538C83.181 0 90 6.819 90 15.231z" style="stroke:none;stroke-width:1;stroke-dasharray:none;stroke-linecap:butt;stroke-linejoin:miter;stroke-miterlimit:10;fill:#1f9bda;fill-rule:nonzero;opacity:1" transform="translate(1.407 1.407)scale(2.81)"/><path d="M0 74.769V43.534c8.265 10.233 20.908 16.784 35.087 16.784h.682c8.28 0 15.002 6.611 15.211 14.841.003-.131.02-.258.02-.39C51 83.181 44.181 90 35.769 90H15.231C6.819 90 0 83.181 0 74.769" style="stroke:none;stroke-width:1;stroke-dasharray:none;stroke-linecap:butt;stroke-linejoin:miter;stroke-miterlimit:10;fill:#1b86bc;fill-rule:nonzero;opacity:1" transform="translate(1.407 1.407)scale(2.81)"/><path d="m38.547 52.997 22.092 16.322c2.522 1.391 4.34.671 4.969-2.34l8.993-42.377c.921-3.691-1.407-5.366-3.819-4.271L17.976 40.692c-3.605 1.446-3.583 3.457-.657 4.353l13.551 4.23 31.371-19.792c1.481-.898 2.841-.415 1.725.575z" style="stroke:none;stroke-width:1;stroke-dasharray:none;stroke-linecap:butt;stroke-linejoin:miter;stroke-miterlimit:10;fill:#fcfdff;fill-rule:nonzero;opacity:1" transform="translate(1.407 1.407)scale(2.81)"/></g></svg>