<svg xmlns="http://www.w3.org/2000/svg" xml:space="preserve" width="800" height="800" viewBox="0 0 57.132 57.132"><path d="M53.707 41.526a28.4 28.4 0 0 0 3.234-13.151C56.941 12.729 44.212 0 28.566 0S.191 12.729.191 28.375 12.919 56.75 28.566 56.75c4.376 0 8.56-.976 12.452-2.882l2.699 2.699c.365.364.851.564 1.367.564s1.002-.2 1.367-.565l9.79-9.791c.364-.364.565-.85.565-1.367a1.92 1.92 0 0 0-.565-1.367zm-4.651-4.616a70 70 0 0 0 4.99-1.748 26.3 26.3 0 0 1-1.833 4.881zm-.996-10.621c-.21-.508-.729-.812-1.39-.812h-6.71a70 70 0 0 0-.454-5.522 68 68 0 0 1 14.938 4.264c.056.023.114.022.172.034.212 1.344.324 2.72.324 4.122 0 1.503-.138 2.999-.391 4.474-.035.01-.071.006-.105.02a68 68 0 0 1-6.988 2.454L43.8 31.695l3.851-3.85c.467-.467.619-1.048.409-1.556m-22.907 1.122v10.508a68 68 0 0 1-5.486-.493 66.8 66.8 0 0 1 .002-17.778 66.8 66.8 0 0 1 17.776-.002q.382 2.895.514 5.833H27.086a1.93 1.93 0 0 0-1.933 1.932M2.578 32.848a26.4 26.4 0 0 1-.387-4.473c0-1.402.112-2.779.324-4.122.057-.013.116-.01.172-.034a68 68 0 0 1 14.928-4.262 68.7 68.7 0 0 0-.002 17.159 67.4 67.4 0 0 1-14.926-4.247c-.036-.015-.073-.011-.109-.021m51.57-10.887a70 70 0 0 0-14.946-4.089A69.3 69.3 0 0 0 35.095 2.82c9.345 2.388 16.706 9.781 19.053 19.141M32.83 2.35a1 1 0 0 0 .062.315 67.5 67.5 0 0 1 4.249 14.926 68.7 68.7 0 0 0-17.161.002 68 68 0 0 1 4.262-14.927 1 1 0 0 0 .062-.315C25.691 2.123 27.114 2 28.566 2s2.875.123 4.264.35m-10.792.469a70 70 0 0 0-4.139 15.058 70 70 0 0 0-14.916 4.084C5.331 12.6 12.693 5.207 22.038 2.819M3.082 35.168a69.3 69.3 0 0 0 14.811 4.012 70 70 0 0 0 3.999 14.713c-9.149-2.395-16.373-9.592-18.81-18.725m21.145 19.219a68 68 0 0 1-4.25-14.906c1.715.212 3.441.355 5.176.44v7.074c0 1.018.664 1.482 1.28 1.482.268 0 .672-.087 1.087-.502l3.756-3.85 3.894 3.894a68 68 0 0 1-2.266 6.372 26.304 26.304 0 0 1-8.677-.004m11.009-.493a70 70 0 0 0 1.519-4.289l2.762 2.762a26 26 0 0 1-4.281 1.527m9.848 1.212L32.69 42.711c-.364-.365-.85-.565-1.367-.565s-1.003.201-1.367.565l-2.808 2.808-.062-18.042h18.103l-2.804 2.804a1.937 1.937 0 0 0 .001 2.733l12.441 12.347z"/></svg>